<svg aria-hidden="true" style="position: absolute; width: 0; height: 0; overflow: hidden;" version="1.1" xmlns="http://www.w3.org/2000/svg" xmlns:xlink="http://www.w3.org/1999/xlink">
<defs>
<symbol id="icon-Vector-2" viewBox="0 0 42 32">
<path fill="#fff" style="fill: var(--color1, #fff); stroke: var(--color1, #fff)" stroke="#fff" stroke-linejoin="miter" stroke-linecap="butt" stroke-miterlimit="4" stroke-width="0.64" d="M6.263 15.205l-0.22-0.21-3.307 3.132 11.651 11.114 24.477-23.351-3.285-3.134-21.192 20.197-8.124-7.75z"></path>
</symbol>
<symbol id="icon-Vector-21" viewBox="0 0 42 32">
<path fill="#fff" style="fill: var(--color1, #fff); stroke: var(--color1, #fff)" stroke="#fff" stroke-linejoin="miter" stroke-linecap="butt" stroke-miterlimit="4" stroke-width="0.64" d="M6.263 15.205l-0.22-0.21-3.307 3.132 11.651 11.114 24.477-23.351-3.285-3.134-21.192 20.197-8.124-7.75z"></path>
</symbol>
<symbol id="icon-phone-black-18dp-1-2" viewBox="0 0 32 32">
<path d="M24.882 19.773l-3.268-0.373c-0.785-0.090-1.557 0.18-2.11 0.733l-2.367 2.367c-3.641-1.853-6.626-4.825-8.478-8.478l2.38-2.38c0.553-0.553 0.823-1.325 0.733-2.11l-0.373-3.242c-0.154-1.299-1.248-2.277-2.56-2.277h-2.226c-1.454 0-2.663 1.209-2.573 2.663 0.682 10.987 9.469 19.761 20.443 20.443 1.454 0.090 2.663-1.119 2.663-2.573v-2.226c0.013-1.3-0.965-2.393-2.264-2.547z"></path>
</symbol>
<symbol id="icon-person-black-18dp-1-1" viewBox="0 0 32 32">
<path d="M16 16c2.947 0 5.333-2.387 5.333-5.333s-2.387-5.333-5.333-5.333c-2.947 0-5.333 2.387-5.333 5.333s2.387 5.333 5.333 5.333zM16 18.667c-3.56 0-10.667 1.787-10.667 5.333v1.333c0 0.733 0.6 1.333 1.333 1.333h18.667c0.733 0 1.333-0.6 1.333-1.333v-1.333c0-3.547-7.107-5.333-10.667-5.333z"></path>
</symbol>
<symbol id="icon-email-black-18dp-1-1" viewBox="0 0 32 32">
<path d="M26.667 5.333h-21.333c-1.467 0-2.653 1.2-2.653 2.667l-0.013 16c0 1.467 1.2 2.667 2.667 2.667h21.333c1.467 0 2.667-1.2 2.667-2.667v-16c0-1.467-1.2-2.667-2.667-2.667zM26.133 11l-9.427 5.893c-0.427 0.267-0.987 0.267-1.413 0l-9.427-5.893c-0.333-0.213-0.533-0.573-0.533-0.96 0-0.893 0.973-1.427 1.733-0.96l8.933 5.587 8.933-5.587c0.76-0.467 1.733 0.067 1.733 0.96 0 0.387-0.2 0.747-0.533 0.96z"></path>
</symbol>
<symbol id="icon-Button-1" viewBox="0 0 128 32">
<path d="M2.56 0h122.88c1.414 0 2.56 1.146 2.56 2.56v26.88c0 1.414-1.146 2.56-2.56 2.56h-122.88c-1.414 0-2.56-1.146-2.56-2.56v-26.88c0-1.414 1.146-2.56 2.56-2.56z"></path>
<path d="M55.049 17.1l0.98-5.18h1.495l-1.615 7.28h-1.51l-1.185-4.87-1.185 4.87h-1.51l-1.615-7.28h1.495l0.985 5.17 1.2-5.17h1.27l1.195 5.18zM60.878 17.155l1-3.365h1.55l-2.175 6.25-0.12 0.285c-0.323 0.707-0.857 1.060-1.6 1.060-0.21 0-0.423-0.032-0.64-0.095v-1.095l0.22 0.005c0.273 0 0.477-0.042 0.61-0.125 0.137-0.083 0.243-0.222 0.32-0.415l0.17-0.445-1.895-5.425h1.555l1.005 3.365zM67.543 17.705c0-0.177-0.088-0.315-0.265-0.415-0.173-0.103-0.454-0.195-0.84-0.275-1.286-0.27-1.93-0.817-1.93-1.64 0-0.48 0.198-0.88 0.595-1.2 0.4-0.323 0.922-0.485 1.565-0.485 0.687 0 1.235 0.162 1.645 0.485 0.413 0.323 0.62 0.743 0.62 1.26h-1.445c0-0.207-0.067-0.377-0.2-0.51-0.133-0.137-0.342-0.205-0.625-0.205-0.244 0-0.432 0.055-0.565 0.165s-0.2 0.25-0.2 0.42c0 0.16 0.076 0.29 0.225 0.39 0.153 0.097 0.41 0.182 0.77 0.255 0.36 0.070 0.663 0.15 0.91 0.24 0.764 0.28 1.145 0.765 1.145 1.455 0 0.493-0.212 0.893-0.635 1.2-0.424 0.303-0.97 0.455-1.64 0.455-0.453 0-0.856-0.080-1.21-0.24-0.35-0.163-0.625-0.385-0.825-0.665-0.2-0.283-0.3-0.588-0.3-0.915h1.37c0.013 0.257 0.109 0.453 0.285 0.59s0.413 0.205 0.71 0.205c0.276 0 0.485-0.052 0.625-0.155 0.143-0.107 0.215-0.245 0.215-0.415zM66.993 11.52h1.575l-1.385 1.55h-1.175l0.985-1.55zM72.022 19.2h-1.45v-7.68h1.45v7.68zM75.357 19.2h-1.45v-5.41h1.45v5.41zM73.821 12.39c0-0.217 0.072-0.395 0.215-0.535 0.147-0.14 0.345-0.21 0.595-0.21 0.246 0 0.444 0.070 0.59 0.21s0.22 0.318 0.22 0.535c0 0.22-0.076 0.4-0.225 0.54-0.147 0.14-0.342 0.21-0.585 0.21s-0.44-0.070-0.59-0.21c-0.147-0.14-0.22-0.32-0.22-0.54zM78.696 13.79v5.705c0 0.597-0.159 1.060-0.476 1.39-0.316 0.333-0.773 0.5-1.37 0.5-0.25 0-0.488-0.028-0.715-0.085v-1.145c0.173 0.030 0.324 0.045 0.454 0.045 0.437 0 0.655-0.232 0.655-0.695v-5.715h1.45zM77.131 12.39c0-0.217 0.072-0.395 0.215-0.535 0.147-0.14 0.345-0.21 0.595-0.21s0.447 0.070 0.59 0.21c0.147 0.14 0.22 0.318 0.22 0.535 0 0.22-0.075 0.4-0.225 0.54-0.147 0.14-0.342 0.21-0.585 0.21s-0.44-0.070-0.59-0.21c-0.147-0.14-0.22-0.32-0.22-0.54z"></path>
</symbol>
<symbol id="icon-icon-send" viewBox="0 0 32 32">
<path fill="#fff" style="fill: var(--color1, #fff)" d="M32 0l-32 18 10.227 3.788 15.773-14.788-11.998 16.186 0.010 0.004-0.012-0.004v8.814l5.735-6.691 7.265 2.691 5-28z"></path>
</symbol>
<symbol id="icon-icon-send1" viewBox="0 0 32 32">
<path fill="#fff" style="fill: var(--color1, #fff)" d="M32 0l-32 18 10.227 3.788 15.773-14.788-11.998 16.186 0.010 0.004-0.012-0.004v8.814l5.735-6.691 7.265 2.691 5-28z"></path>
</symbol>
</defs>
</svg>
